<?xml version="1.0" encoding="UTF-8"?><svg id="a" xmlns="http://www.w3.org/2000/svg" width="802.615" height="1083.077" xmlns:xlink="http://www.w3.org/1999/xlink" viewBox="0 0 802.615 1083.077"><defs><style>.c{fill:none;}.d{fill:#f8faff;}.e{fill:#f4efe9;}.f,.g{fill:#fff;}.h{fill:#c4dffa;}.i{fill:#e0effc;}.j{fill:#75b4f0;}.k{fill:#4c95db;}.g{stroke:#9dcbf7;stroke-miterlimit:10;stroke-width:2.248px;}.l{clip-path:url(#b);}</style><clipPath id="b"><path d="M673.687,339.838c-3.143-7.696-10.63-12.725-18.943-12.725H134.191l-41.765,102.251H710.255l-36.568-89.526Z" style="fill:none;"/></clipPath></defs><path d="M801.351,17.816V1065.261c0,9.281-5.136,16.817-11.462,16.817H12.729c-6.327,0-11.464-7.535-11.464-16.82V17.819C1.264,8.536,6.4,.999,12.729,.999H789.887c6.326,0,11.462,7.535,11.462,16.817h.002Z" style="fill:#f8faff;"/><g><polygon points="61.828 730.38 130.557 666.749 680.389 666.749 741.032 730.38 61.828 730.38" style="fill:#fff; stroke:#9dcbf7; stroke-miterlimit:10; stroke-width:2.248px;"/><path d="M671.796,674.001H131.065c-8.925,0-16.16-7.479-16.16-16.705V318.778c0-9.226,7.235-16.705,16.16-16.705H671.796c8.925,0,16.16,7.479,16.16,16.705v338.517c0,9.226-7.235,16.705-16.16,16.705Z" style="fill:#fff; stroke:#9dcbf7; stroke-miterlimit:10; stroke-width:2.248px;"/><path d="M152.047,328.163h498.767c8.226,0,14.905,6.679,14.905,14.905v302.065c0,8.227-6.679,14.906-14.906,14.906H152.047c-8.227,0-14.906-6.679-14.906-14.906V343.069c0-8.227,6.679-14.906,14.906-14.906Z" style="fill:#e0effc;"/><g><path d="M672.14,336.049c-2.207-5.404-7.465-8.936-13.303-8.936H145.683c-6.95,0-13.21,4.204-15.838,10.639l-37.419,91.612H710.255l-38.115-93.315Z" style="fill:#75b4f0;"/><path d="M112.244,462.488h-.392c-10.729,0-19.426-8.697-19.426-19.426v-13.698h39.245v13.698c0,10.728-8.698,19.426-19.426,19.426Z" style="fill:#4c95db;"/><path d="M193.992,462.488h-.429c-11.713,0-21.208-8.697-21.208-19.426v-13.698h42.846v13.698c0,10.728-9.495,19.426-21.208,19.426Z" style="fill:#4c95db;"/><path d="M276.09,462.488h-.446c-12.205,0-22.099-8.697-22.099-19.426v-13.698h44.645v13.698c0,10.728-9.894,19.426-22.1,19.426Z" style="fill:#4c95db;"/><path d="M359.443,462.488h-.455c-12.402,0-22.455-8.697-22.455-19.426v-13.698h45.365v13.698c0,10.728-10.054,19.426-22.455,19.426Z" style="fill:#4c95db;"/><path d="M443.057,462.488h-.444c-12.156,0-22.01-8.697-22.01-19.426v-13.698h44.464v13.698c0,10.728-9.854,19.426-22.01,19.426Z" style="fill:#4c95db;"/><path d="M525.326,462.488h-.444c-12.156,0-22.01-8.697-22.01-19.426v-13.698h44.464v13.698c0,10.728-9.854,19.426-22.01,19.426Z" style="fill:#4c95db;"/><path d="M608.581,462.488h-.435c-11.91,0-21.565-8.697-21.565-19.426v-13.698h43.565v13.698c0,10.728-9.655,19.426-21.565,19.426Z" style="fill:#4c95db;"/><path d="M690.474,462.488h-.402c-11.024,0-19.961-8.697-19.961-19.426v-13.698h40.325v13.698c0,10.728-8.937,19.426-19.961,19.426Z" style="fill:#4c95db;"/><path d="M152.216,462.488h-.407c-11.122,0-20.138-8.697-20.138-19.426v-13.698h40.684v13.698c0,10.728-9.016,19.426-20.139,19.426Z" style="fill:#f4efe9;"/><path d="M234.563,462.488h-.383c-10.483,0-18.98-8.697-18.98-19.426v-13.698h38.344v13.698c0,10.728-8.499,19.426-18.981,19.426Z" style="fill:#f4efe9;"/><path d="M317.645,462.488h-.387c-10.581,0-19.159-8.697-19.159-19.426v-13.698h38.705v13.698c0,10.728-8.579,19.426-19.159,19.426Z" style="fill:#f4efe9;"/><path d="M401.534,462.488h-.387c-10.581,0-19.159-8.697-19.159-19.426v-13.698h38.704v13.698c0,10.728-8.577,19.426-19.158,19.426Z" style="fill:#f4efe9;"/><path d="M484.069,462.488h-.378c-10.336,0-18.714-8.697-18.714-19.426v-13.698h37.804v13.698c0,10.728-8.378,19.426-18.713,19.426Z" style="fill:#f4efe9;"/><path d="M567.246,462.488h-.396c-10.826,0-19.604-8.697-19.604-19.426v-13.698h39.605v13.698c0,10.728-8.778,19.426-19.604,19.426Z" style="fill:#f4efe9;"/><path d="M650.419,462.488h-.403c-11.024,0-19.96-8.697-19.96-19.426v-13.698h40.325v13.698c0,10.728-8.937,19.426-19.961,19.426Z" style="fill:#f4efe9;"/><g style="clip-path:url(#b);"><rect x="381.898" y="314.151" width="38.885" height="165.618" style="fill:#fff;"/><polygon points="331.282 474.512 292.808 468.875 315.29 305.51 351.655 309.471 331.282 474.512" style="fill:#fff;"/><polygon points="244.97 467.601 207.311 457.917 251.564 297.589 282.167 307.31 244.97 467.601" style="fill:#fff;"/><polygon points="470.769 474.512 509.241 468.875 482.349 304.79 449.586 310.191 470.769 474.512" style="fill:#fff;"/><polygon points="642.822 467.001 679.331 453.618 622.33 298.117 589.281 310.551 642.822 467.001" style="fill:#fff;"/><polygon points="159.46 467.001 122.951 453.618 179.951 298.117 213 310.551 159.46 467.001" style="fill:#fff;"/><polygon points="557.08 467.601 594.74 457.917 550.396 298.309 515.835 307.2 557.08 467.601" style="fill:#fff;"/></g></g><circle cx="401.43" cy="312.996" r="6.064" style="fill:#4c95db;"/><g><path d="M370.17,610.594h61.55c7.57,0,13.728-6.158,13.728-13.728v-.205c0-7.57-6.158-13.728-13.728-13.728h-61.55c-1.982,0-3.589,1.606-3.589,3.589s1.606,3.589,3.589,3.589h61.55c3.612,0,6.55,2.938,6.55,6.55v.205c0,3.612-2.938,6.55-6.55,6.55h-61.55c-1.982,0-3.589,1.607-3.589,3.589s1.606,3.589,3.589,3.589Z" style="fill:#4c95db;"/><path d="M437.992,590.049c1.155,0,2.224-.75,2.576-1.914l18.8-62.187h-104.933l11.874,61.915c.28,1.459,1.69,2.419,3.151,2.136,1.46-.28,2.416-1.691,2.136-3.151l-10.647-55.517h91.167l-16.703,55.245c-.431,1.423,.375,2.926,1.798,3.356,.259,.078,.522,.116,.78,.116Z" style="fill:#4c95db;"/><path d="M455.742,531.333c1.106,0,2.143-.687,2.536-1.788l6.006-16.843h13.579c1.487,0,2.692-1.205,2.692-2.692s-1.205-2.692-2.692-2.692h-17.375l-7.281,20.418c-.499,1.4,.231,2.941,1.631,3.441,.299,.106,.605,.156,.904,.156Z" style="fill:#4c95db;"/><path d="M477.888,514.496h14.566c2.478,0,4.487-2.008,4.487-4.487s-2.009-4.486-4.487-4.486h-14.566c-2.478,0-4.487,2.008-4.487,4.486s2.009,4.487,4.487,4.487Z" style="fill:#4c95db;"/><path d="M433.381,612.87c-6.82,0-12.34,5.53-12.34,12.34s5.52,12.34,12.34,12.34,12.33-5.53,12.33-12.34-5.52-12.34-12.33-12.34Zm0,18.1c-3.18,0-5.76-2.58-5.76-5.76s2.58-5.76,5.76-5.76,5.75,2.58,5.75,5.76-2.58,5.76-5.75,5.76Z" style="fill:#4c95db;"/><path d="M375.351,612.87c-6.81,0-12.33,5.53-12.33,12.34s5.52,12.34,12.33,12.34,12.34-5.53,12.34-12.34-5.52-12.34-12.34-12.34Zm-.6,18.1c-3.18,0-5.75-2.58-5.75-5.76s2.57-5.76,5.75-5.76,5.76,2.58,5.76,5.76-2.58,5.76-5.76,5.76Z" style="fill:#4c95db;"/><path d="M425.604,588.571c1.284,0,2.421-.922,2.649-2.232l9.57-55.033c.254-1.465-.726-2.858-2.191-3.113-1.462-.253-2.858,.727-3.113,2.192l-9.57,55.033c-.254,1.464,.726,2.858,2.191,3.113,.156,.027,.311,.04,.465,.04Z" style="fill:#4c95db;"/><path d="M412.144,587.373c1.407,0,2.59-1.092,2.684-2.514l3.589-54.434c.098-1.483-1.025-2.765-2.509-2.863-1.482-.106-2.764,1.025-2.863,2.509l-3.589,54.434c-.099,1.484,1.025,2.766,2.508,2.863,.061,.005,.121,.006,.18,.006Z" style="fill:#4c95db;"/><path d="M384.023,588.571c.139,0,.28-.01,.422-.032,1.469-.232,2.472-1.61,2.241-3.079l-8.673-55.033c-.232-1.469-1.611-2.468-3.078-2.241-1.469,.232-2.472,1.61-2.241,3.079l8.673,55.033c.21,1.327,1.355,2.273,2.656,2.273Z" style="fill:#4c95db;"/><path d="M398.38,587.373c.045,0,.09,0,.136-.003,1.484-.073,2.629-1.336,2.555-2.821l-2.692-54.434c-.073-1.486-1.357-2.638-2.821-2.555-1.484,.074-2.629,1.336-2.555,2.821l2.692,54.434c.071,1.439,1.261,2.558,2.686,2.558Z" style="fill:#4c95db;"/><path d="M363.689,550.287h86.138c1.487,0,2.692-1.205,2.692-2.691s-1.205-2.692-2.692-2.692h-86.138c-1.487,0-2.692,1.205-2.692,2.692s1.205,2.691,2.692,2.691Z" style="fill:#4c95db;"/><path d="M366.68,569.428h75.969c1.487,0,2.692-1.205,2.692-2.692s-1.205-2.692-2.692-2.692h-75.969c-1.487,0-2.692,1.205-2.692,2.692s1.205,2.692,2.692,2.692Z" style="fill:#4c95db;"/></g><path d="M706.228,781.004H96.632c-19.221,0-34.804-15.582-34.804-34.804v-15.82H741.032v15.82c0,19.222-15.582,34.804-34.804,34.804Z" style="fill:#fff; stroke:#9dcbf7; stroke-miterlimit:10; stroke-width:2.248px;"/><path d="M284.186,673.824c0,3.349-2.715,6.064-6.064,6.064h-68.729c-3.349,0-6.064-2.714-6.064-6.064h0c0-3.349,2.715-6.064,6.064-6.064h68.729c3.349,0,6.064,2.715,6.064,6.064h0Z" style="fill:#c4dffa;"/><path d="M609.639,673.824c0,3.349-2.715,6.064-6.064,6.064h-68.729c-3.349,0-6.064-2.714-6.064-6.064h0c0-3.349,2.715-6.064,6.064-6.064h68.729c3.349,0,6.064,2.715,6.064,6.064h0Z" style="fill:#c4dffa;"/><polygon points="321.583 721.284 344.171 700.371 461.347 700.371 481.277 721.284 321.583 721.284" style="fill:#c4dffa;"/><rect x="383.761" y="687.519" width="37.884" height="2.021" style="fill:#fff;"/><g><rect x="107.311" y="714.69" width="42.451" height="2.021" style="fill:#c4dffa;"/><rect x="143.21" y="687.519" width="37.884" height="2.021" style="fill:#c4dffa;"/><rect x="127.038" y="699.914" width="37.884" height="2.022" style="fill:#c4dffa;"/><rect x="216.992" y="687.519" width="37.884" height="2.021" style="fill:#c4dffa;"/><rect x="197.789" y="699.914" width="37.884" height="2.022" style="fill:#c4dffa;"/><rect x="243.759" y="714.69" width="42.45" height="2.021" style="fill:#c4dffa;"/><rect x="288.753" y="687.519" width="37.884" height="2.021" style="fill:#c4dffa;"/><rect x="269.55" y="699.914" width="37.884" height="2.022" style="fill:#c4dffa;"/><rect x="176.04" y="717.722" width="42.45" height="2.021" style="fill:#c4dffa;"/></g><g><rect x="660.176" y="714.69" width="42.45" height="2.021" style="fill:#c4dffa;"/><rect x="628.844" y="687.519" width="37.882" height="2.021" style="fill:#c4dffa;"/><rect x="645.015" y="699.914" width="37.882" height="2.022" style="fill:#c4dffa;"/><rect x="555.061" y="687.519" width="37.882" height="2.021" style="fill:#c4dffa;"/><rect x="574.265" y="699.914" width="37.882" height="2.022" style="fill:#c4dffa;"/><rect x="523.728" y="714.69" width="42.451" height="2.021" style="fill:#c4dffa;"/><rect x="483.299" y="687.519" width="37.882" height="2.021" style="fill:#c4dffa;"/><rect x="502.504" y="699.914" width="37.882" height="2.022" style="fill:#c4dffa;"/><rect x="591.447" y="717.722" width="42.45" height="2.021" style="fill:#c4dffa;"/></g></g></svg>